<?xml version="1.0" standalone="no"?>
<!DOCTYPE svg PUBLIC "-//W3C//DTD SVG 20010904//EN"
 "http://www.w3.org/TR/2001/REC-SVG-20010904/DTD/svg10.dtd">
<svg version="1.0" xmlns="http://www.w3.org/2000/svg"
 width="512.000000pt" height="512.000000pt" viewBox="0 0 512.000000 512.000000"
 preserveAspectRatio="xMidYMid meet">

<g transform="translate(0.000000,512.000000) scale(0.100000,-0.100000)"
fill="#000000" stroke="none">
<path d="M2504 3870 c-12 -5 -34 -24 -48 -43 l-26 -34 0 -451 0 -451 -44 42
c-204 195 -268 246 -309 247 -35 0 -95 -48 -106 -86 -18 -66 -7 -86 121 -206
67 -62 144 -135 172 -162 106 -101 180 -136 286 -136 106 0 180 35 286 136 28
27 105 100 171 161 129 121 140 140 122 207 -10 38 -70 86 -106 86 -40 0 -118
-63 -330 -267 l-23 -22 0 448 0 448 -23 34 c-36 53 -89 71 -143 49z"/>
<path d="M1600 3745 c-199 -41 -374 -204 -437 -410 -17 -55 -18 -105 -18 -625
0 -622 0 -619 62 -744 41 -82 151 -196 234 -243 30 -17 87 -40 126 -52 66 -20
93 -21 467 -21 l396 0 0 -120 0 -120 -256 0 -256 0 -33 -33 c-45 -45 -52 -78
-29 -128 32 -72 2 -69 693 -69 459 0 627 3 646 12 34 15 55 57 55 109 0 33 -6
47 -34 75 l-34 34 -256 0 -256 0 0 120 0 120 396 0 c374 0 401 1 467 21 39 12
96 35 126 52 83 47 193 161 234 243 62 125 62 122 62 744 0 500 -2 572 -17
626 -53 190 -235 364 -428 409 -92 21 -508 22 -549 0 -27 -14 -61 -68 -61 -98
0 -33 22 -73 53 -94 30 -20 45 -22 267 -25 230 -3 236 -4 291 -30 75 -35 121
-77 166 -151 l38 -62 3 -467 3 -468 -1171 0 -1171 0 3 463 3 462 25 49 c45 89
139 168 225 190 17 5 125 8 242 7 225 -2 258 3 297 48 28 30 28 111 1 141 -40
45 -70 50 -297 49 -134 -1 -237 -6 -278 -14z m2100 -1634 c0 -17 -42 -85 -74
-119 -46 -50 -123 -89 -196 -101 -89 -15 -1671 -15 -1760 0 -73 12 -150 51
-196 101 -32 34 -74 102 -74 119 0 5 436 9 1150 9 714 0 1150 -4 1150 -9z"/>
</g>
</svg>
